<?xml version="1.0" encoding="UTF-8" standalone="no"?>
<!-- Created with Inkscape (http://www.inkscape.org/) -->

<svg
   xmlns:dc="http://purl.org/dc/elements/1.1/"
   xmlns:cc="http://creativecommons.org/ns#"
   xmlns:rdf="http://www.w3.org/1999/02/22-rdf-syntax-ns#"
   xmlns:svg="http://www.w3.org/2000/svg"
   xmlns="http://www.w3.org/2000/svg"
   xmlns:sodipodi="http://sodipodi.sourceforge.net/DTD/sodipodi-0.dtd"
   xmlns:inkscape="http://www.inkscape.org/namespaces/inkscape"
   width="210mm"
   height="297mm"
   viewBox="0 0 744.09448819 1052.3622047"
   id="svg2"
   version="1.1"
   inkscape:version="0.91 r"
   sodipodi:docname="drawing.svg"
   inkscape:export-filename="/home/shinsuke/repos/endojo/apps/core/static/img/logo.png"
   inkscape:export-xdpi="90"
   inkscape:export-ydpi="90">
  <defs
     id="defs4">
    <filter
       inkscape:collect="always"
       style="color-interpolation-filters:sRGB"
       id="filter4244"
       x="-0.1534257"
       width="1.3068514"
       y="-1.1020105"
       height="3.2040211">
      <feGaussianBlur
         inkscape:collect="always"
         stdDeviation="61.041246"
         id="feGaussianBlur4246" />
    </filter>
  </defs>
  <sodipodi:namedview
     id="base"
     pagecolor="#ffffff"
     bordercolor="#666666"
     borderopacity="1.0"
     inkscape:pageopacity="0.0"
     inkscape:pageshadow="2"
     inkscape:zoom="0.7"
     inkscape:cx="397.91984"
     inkscape:cy="-238.20703"
     inkscape:document-units="px"
     inkscape:current-layer="layer1"
     showgrid="false"
     inkscape:window-width="1920"
     inkscape:window-height="1055"
     inkscape:window-x="0"
     inkscape:window-y="0"
     inkscape:window-maximized="1" />
  <metadata
     id="metadata7">
    <rdf:RDF>
      <cc:Work
         rdf:about="">
        <dc:format>image/svg+xml</dc:format>
        <dc:type
           rdf:resource="http://purl.org/dc/dcmitype/StillImage" />
        <dc:title />
      </cc:Work>
    </rdf:RDF>
  </metadata>
  <g
     inkscape:groupmode="layer"
     id="layer2"
     inkscape:label="Layer 2">
    <circle
       style="color:#000000;clip-rule:nonzero;display:inline;overflow:visible;visibility:visible;opacity:0.98999999;isolation:auto;mix-blend-mode:normal;color-interpolation:sRGB;color-interpolation-filters:linearRGB;solid-color:#000000;solid-opacity:1;fill:#ffffff;fill-opacity:1;fill-rule:evenodd;stroke:#776e65;stroke-width:10;stroke-linecap:butt;stroke-linejoin:bevel;stroke-miterlimit:4;stroke-dasharray:none;stroke-dashoffset:0;stroke-opacity:1;color-rendering:auto;image-rendering:auto;shape-rendering:auto;text-rendering:auto;enable-background:accumulate"
       id="path4161"
       cx="256.78571"
       cy="319.14792"
       r="71.236053" />
    <ellipse
       style="color:#000000;clip-rule:nonzero;display:inline;overflow:visible;visibility:visible;opacity:0.98999999;isolation:auto;mix-blend-mode:normal;color-interpolation:sRGB;color-interpolation-filters:linearRGB;solid-color:#000000;solid-opacity:1;fill:#ffffff;fill-opacity:1;fill-rule:evenodd;stroke:#776e65;stroke-width:10;stroke-linecap:butt;stroke-linejoin:bevel;stroke-miterlimit:4;stroke-dasharray:none;stroke-dashoffset:0;stroke-opacity:1;color-rendering:auto;image-rendering:auto;shape-rendering:auto;text-rendering:auto;enable-background:accumulate"
       id="path4163"
       cx="389.38962"
       cy="285.15689"
       rx="33.214287"
       ry="52.142857"
       transform="matrix(0.8660254,0.5,-0.5,0.8660254,0,0)" />
    <circle
       style="color:#000000;clip-rule:nonzero;display:inline;overflow:visible;visibility:visible;opacity:0.98999999;isolation:auto;mix-blend-mode:normal;color-interpolation:sRGB;color-interpolation-filters:linearRGB;solid-color:#000000;solid-opacity:1;fill:#ffffff;fill-opacity:1;fill-rule:evenodd;stroke:#776e65;stroke-width:10;stroke-linecap:butt;stroke-linejoin:bevel;stroke-miterlimit:4;stroke-dasharray:none;stroke-dashoffset:0;stroke-opacity:1;color-rendering:auto;image-rendering:auto;shape-rendering:auto;text-rendering:auto;enable-background:accumulate"
       id="path4167"
       cx="124.64287"
       cy="352.0051"
       r="43.829369" />
    <circle
       style="color:#000000;clip-rule:nonzero;display:inline;overflow:visible;visibility:visible;opacity:0.98999999;isolation:auto;mix-blend-mode:normal;color-interpolation:sRGB;color-interpolation-filters:linearRGB;solid-color:#000000;solid-opacity:1;fill:#ffffff;fill-opacity:1;fill-rule:evenodd;stroke:#776e65;stroke-width:10;stroke-linecap:butt;stroke-linejoin:bevel;stroke-miterlimit:4;stroke-dasharray:none;stroke-dashoffset:0;stroke-opacity:1;color-rendering:auto;image-rendering:auto;shape-rendering:auto;text-rendering:auto;enable-background:accumulate"
       id="path4169"
       cx="266.07144"
       cy="462.7193"
       r="22.5" />
    <ellipse
       style="color:#000000;clip-rule:nonzero;display:inline;overflow:visible;visibility:visible;opacity:0.98999999;isolation:auto;mix-blend-mode:normal;color-interpolation:sRGB;color-interpolation-filters:linearRGB;solid-color:#000000;solid-opacity:1;fill:#ffffff;fill-opacity:1;fill-rule:evenodd;stroke:#776e65;stroke-width:10;stroke-linecap:butt;stroke-linejoin:bevel;stroke-miterlimit:4;stroke-dasharray:none;stroke-dashoffset:0;stroke-opacity:1;color-rendering:auto;image-rendering:auto;shape-rendering:auto;text-rendering:auto;enable-background:accumulate"
       id="path4171"
       cx="560.25208"
       cy="-69.87709"
       rx="19.642857"
       ry="30.714285"
       transform="matrix(0.25881905,0.96592583,-0.96592583,0.25881905,0,0)" />
    <ellipse
       style="color:#000000;clip-rule:nonzero;display:inline;overflow:visible;visibility:visible;opacity:0.98999999;isolation:auto;mix-blend-mode:normal;color-interpolation:sRGB;color-interpolation-filters:linearRGB;solid-color:#000000;solid-opacity:1;fill:#ffffff;fill-opacity:1;fill-rule:evenodd;stroke:#776e65;stroke-width:10;stroke-linecap:butt;stroke-linejoin:bevel;stroke-miterlimit:4;stroke-dasharray:none;stroke-dashoffset:0;stroke-opacity:1;color-rendering:auto;image-rendering:auto;shape-rendering:auto;text-rendering:auto;enable-background:accumulate"
       id="path4173"
       cx="-136.96159"
       cy="480.79587"
       rx="22.5"
       ry="33.214287"
       transform="matrix(0.8660254,-0.5,0.5,0.8660254,0,0)" />
    <path
       style="fill:none;fill-rule:evenodd;stroke:#776e65;stroke-width:11.38842773;stroke-linecap:butt;stroke-linejoin:miter;stroke-miterlimit:4;stroke-dasharray:none;stroke-opacity:1"
       d="m 163.89486,438.00993 c 53.63886,27.27599 53.63886,27.27599 53.63886,27.27599"
       id="path4177"
       inkscape:connector-curvature="0" />
    <path
       style="fill:none;fill-rule:evenodd;stroke:#776e65;stroke-width:5;stroke-linecap:butt;stroke-linejoin:miter;stroke-miterlimit:4;stroke-dasharray:none;stroke-opacity:1"
       d="m 182.14286,444.50506 c 41.42857,-39.28571 41.42857,-39.28571 41.42857,-39.28571"
       id="path4181"
       inkscape:connector-curvature="0" />
    <path
       style="fill:none;fill-rule:evenodd;stroke:#776e65;stroke-width:5;stroke-linecap:butt;stroke-linejoin:miter;stroke-miterlimit:4;stroke-dasharray:none;stroke-opacity:1"
       d="m 192.14286,395.21935 c 4.28571,34.28571 4.28571,33.57143 4.28571,33.57143"
       id="path4183"
       inkscape:connector-curvature="0" />
    <path
       style="fill:none;fill-rule:evenodd;stroke:#776e65;stroke-width:10;stroke-linecap:butt;stroke-linejoin:miter;stroke-miterlimit:4;stroke-dasharray:none;stroke-opacity:1"
       d="m 125.16972,278.28844 c -1.00442,-1.20451 -2.94752,-0.32209 -4.13967,-1.10922 -0.281,-0.18553 -0.22409,-0.68929 -0.50509,-0.87481 -1.66901,-1.10199 -1.02669,0.13412 -2.06983,-0.55461 -0.44429,-0.29335 -0.72954,-0.80129 -1.19502,-1.0597 -3.14084,-0.84158 -0.12666,0.31466 -1.88497,-1.24455 -0.17815,-0.15797 -0.51181,-0.0269 -0.68996,-0.18487 -0.25193,-0.22341 -0.33671,-0.58322 -0.50507,-0.87482 -0.33671,-0.58321 -0.59434,-1.21991 -1.01015,-1.74964 -0.65746,-0.83758 -1.73259,-1.2818 -2.39005,-2.11937 -1.2349,-1.57323 -1.79556,-3.67569 -3.03045,-5.24892 -0.65746,-0.83757 -1.68715,-1.31955 -2.39005,-2.11937 -1.40963,-1.60399 -0.0368,-0.17978 -0.32021,-1.56477 -0.12846,-0.62777 -0.88168,-1.12186 -1.01015,-1.74963 -0.0477,-0.23326 0.2326,-0.45669 0.18487,-0.68995 -0.13501,-0.65976 -0.79435,-1.11171 -1.01015,-1.74963 -0.17061,-0.50433 -0.054,-1.1037 -0.32021,-1.56477 -0.2662,-0.46107 -0.92882,-0.59861 -1.19502,-1.05969 -0.2662,-0.46107 -0.1496,-1.06044 -0.32021,-1.56476 -0.63199,-1.8682 -0.47337,0.19025 -1.700096,-1.93451 -0.853882,-4.1727 0.505076,0.87482 -1.515228,-2.62446 -0.11905,-0.20618 0.303917,-0.48374 0.184869,-0.68994 -0.266199,-0.46106 -0.928823,-0.59862 -1.195021,-1.05969 -0.119048,-0.2062 0.303915,-0.48374 0.184869,-0.68994 -0.119048,-0.2062 -0.5709,0.0213 -0.689947,-0.18487 -0.119048,-0.2062 -0.04511,-0.75158 0.184871,-0.68995 0.735333,0.19703 0.51969,2.11735 0.640412,3.12952 0.126101,1.05731 0.426938,2.08636 0.64041,3.12954 0.426941,2.08635 0.853882,4.1727 1.280823,6.25905 0.106735,0.52159 0.21347,1.04318 0.320205,1.56477 0.106737,0.52159 0.329163,1.03244 0.320203,1.56477 -0.008,0.47612 -0.361729,0.90376 -0.36974,1.37989 -0.750454,1.13734 0.77385,1.58266 0.82528,2.43958 0.0285,0.47534 -0.36173,0.90377 -0.36974,1.3799 -0.009,0.53232 0.32916,1.03244 0.32021,1.56476 -0.016,0.95225 -0.796548,1.80912 -0.739487,2.75979 0.02018,0.33611 0.484907,0.53871 0.505077,0.87482 0.0428,0.713 -0.369742,1.37989 -0.554612,2.06984 -0.06298,0.23504 -0.514962,2.41973 -0.739484,2.75979 -0.293344,0.44429 -0.766342,0.75073 -1.059689,1.19502 -0.131184,0.19869 -0.0269,0.5118 -0.184869,0.68994 -0.223402,0.25194 -0.651417,0.25315 -0.874818,0.50508 -0.15797,0.17815 -0.0269,0.51181 -0.18487,0.68995 -0.223402,0.25193 -0.621893,0.28279 -0.874819,0.50508 -0.799819,0.7029 -1.319557,1.68714 -2.119377,2.39004 -1.481424,1.30192 -0.314824,-0.40144 -2.439582,0.82528 -0.206197,0.11905 0.02133,0.5709 -0.184871,0.68995 -0.461069,0.2662 -1.060442,0.1496 -1.564766,0.32021 -1.860833,0.62949 0.285081,0.66173 -2.439582,0.82528 -2.2373,0.13429 1.853388,-1.25439 -2.25471,0.13533 -1.860836,0.6295 0.285078,0.66174 -2.439583,0.82528 -0.23767,0.0143 -0.456685,-0.2326 -0.689946,-0.18487 -0.329884,0.0675 -0.538707,0.48491 -0.87482,0.50508 -0.475333,0.0285 -0.903772,-0.36173 -1.379893,-0.36974 -0.532322,-0.009 -1.033326,0.28831 -1.564767,0.32021 -0.237669,0.0143 -0.456685,-0.23261 -0.689947,-0.18487 -0.32988,0.0675 -0.544936,0.43757 -0.874816,0.50507 -0.233261,0.0477 -0.459965,-0.12325 -0.689947,-0.18487 -0.291607,0.16836 -0.544936,0.43757 -0.874819,0.50508 -0.233262,0.0477 -0.48375,-0.30392 -0.689946,-0.18487 -0.206197,0.11905 -0.123247,0.45996 -0.18487,0.68994 -0.52159,0.10674 -1.033325,0.28831 -1.564766,0.32021 -0.604938,0.0363 -2.25983,-0.84179 -2.759788,-0.73948 -0.32988,0.0675 -0.544936,0.43757 -0.874817,0.50507 -0.205718,0.0421 -2.399,-0.64281 -2.759787,-0.73949 -1.839859,-0.49298 -3.679718,-0.98597 -5.519577,-1.47896 -1.839858,-0.49299 -3.679717,-0.98598 -5.519576,-1.47897 -0.229982,-0.0616 -0.459964,-0.12324 -0.689947,-0.18487 -0.229982,-0.0616 -0.751571,0.0451 -0.689947,-0.18487 0.06162,-0.22998 0.808994,0.39107 0.689947,0.18487 -0.266199,-0.46107 -0.928825,-0.59861 -1.195025,-1.05968 -0.119047,-0.2062 0.30392,-0.48375 0.184872,-0.68995 -1.015191,-0.27202 -0.5709,0.0213 -1.195024,-1.05969 -0.168358,-0.29161 -0.336718,-0.58321 -0.505076,-0.87482 -0.168359,-0.2916 -0.796682,-0.70646 -0.505078,-0.87481 0.291607,-0.16836 0.336719,0.58321 0.505078,0.87481 0.168358,0.29161 0.336718,0.58321 0.505076,0.87482 0.841795,1.45803 1.683588,2.91606 2.52538,4.37409 0.16836,0.29161 0.397176,0.55586 0.505078,0.87482 0.170607,0.50432 0.121888,1.07068 0.320207,1.56476 0.250854,0.62497 0.759295,1.12467 1.010152,1.74963 1.891286,4.71188 -1.762494,-2.04257 1.330356,3.31441 0.336718,0.58321 0.759299,1.12467 1.010154,1.74964 0.396637,0.98815 0.299198,2.12088 0.640411,3.12952 0.215802,0.63792 0.794351,1.11172 1.010152,1.74964 0.170607,0.50432 0.213472,1.04317 0.320207,1.56476 0.106735,0.52159 0.288305,1.03333 0.320203,1.56477 0.01427,0.23766 -0.232603,0.45668 -0.184869,0.68995 0.488243,2.38592 0.885084,-1.11532 0.825281,2.43958 -0.008,0.47612 -0.246494,0.91993 -0.369742,1.37989 -0.06162,0.22998 -0.232604,0.45669 -0.184871,0.68995 0.06751,0.32988 0.437572,0.54493 0.505078,0.87482 0.04773,0.23326 -0.123247,0.45996 -0.184872,0.68995 -0.123247,0.45996 -0.246494,0.91993 -0.369741,1.37989 -0.369741,1.37989 -0.739483,2.75979 -1.109224,4.13968 -0.308119,1.14991 -0.616235,2.29982 -0.924354,3.44973 -0.123247,0.45997 -0.0538,1.02361 -0.369741,1.3799 -0.157969,0.17814 -0.456686,-0.23261 -0.689947,-0.18487 -0.329883,0.0675 -0.621892,0.2828 -0.874818,0.50508 -0.39991,0.35145 -0.766342,0.75072 -1.059689,1.19502 -0.766323,1.16065 0.965146,0.60919 -1.24456,1.88497 -0.206197,0.11905 -0.452278,-0.19914 -0.689947,-0.18487 -0.531441,0.0319 -1.060442,0.1496 -1.564763,0.3202 -0.637924,0.21581 -1.111715,0.79436 -1.749635,1.01015 -0.504322,0.17061 -1.060445,0.14961 -1.564766,0.32021 -0.318962,0.10791 -0.544936,0.43757 -0.87482,0.50508 -0.233258,0.0477 -0.456684,-0.2326 -0.689946,-0.18487 -0.597651,0.1223 -2.115527,1.48468 -2.624451,1.51522 -0.475337,0.0285 -0.913372,-0.46521 -1.379895,-0.36974 -0.233262,0.0477 -0.0269,0.51181 -0.184872,0.68995 -2.205083,2.4867 0.245264,-0.72482 -1.564763,0.3202 -0.461072,0.26621 -0.659778,0.84357 -1.059691,1.19503 -0.252923,0.22228 -0.583211,0.33672 -0.874816,0.50508 -0.291607,0.16836 -0.544936,0.43757 -0.874818,0.50508 -0.233262,0.0477 -0.456686,-0.23261 -0.689948,-0.18487 -0.32988,0.0675 -0.544936,0.43757 -0.874816,0.50507 -0.233262,0.0477 -0.48375,-0.30392 -0.689948,-0.18487 -0.206196,0.11904 0.02133,0.5709 -0.184871,0.68995 -0.206196,0.11905 -0.48375,-0.30392 -0.689947,-0.18487 -0.206197,0.11904 -0.0269,0.5118 -0.184869,0.68994 -0.223402,0.25193 -0.583212,0.33671 -0.874819,0.50508 -0.291604,0.16835 -0.544936,0.43757 -0.874819,0.50508 -0.46652,0.0955 -0.913371,-0.46521 -1.379894,-0.36974 -0.659761,0.135 -1.089872,0.87514 -1.749636,1.01015 -0.466522,0.0955 -0.967499,-0.60784 -1.379893,-0.36974 -0.206197,0.11905 -0.303917,0.48374 -0.184869,0.68994 0.0026,0.005 2.048329,0.54263 2.06984,0.55461 0.465481,0.25841 0.796683,0.70646 1.195023,1.05969 0.398342,0.35323 0.796683,0.70646 1.195025,1.05969 0.459965,0.12324 0.982506,0.10737 1.379893,0.36974 0.280995,0.18553 0.282798,0.62189 0.505076,0.87482 0.351452,0.39991 0.843572,0.65977 1.195022,1.05969 0.22228,0.25292 0.253143,0.65142 0.505077,0.87481 0.178144,0.15797 0.511804,0.0269 0.689948,0.18487 0.503866,0.44681 0.565596,1.24379 1.010152,1.74964 0.351453,0.39991 0.843571,0.65978 1.195023,1.05969 0.489006,0.55643 1.12072,1.94115 1.515228,2.62446 0.16836,0.2916 0.253143,0.65141 0.505078,0.87481 0.178143,0.15797 0.511804,0.0269 0.689946,0.18487 0.898525,0.79676 0.111629,0.95287 1.010154,1.74963 0.178143,0.15797 0.570899,-0.0213 0.689947,0.18488 0.119047,0.20619 -0.303919,0.48375 -0.184872,0.68995 0.119047,0.20619 0.511803,0.0269 0.689946,0.18487 0.251935,0.22339 0.253145,0.65141 0.505078,0.87481 0.178144,0.15797 0.570898,-0.0213 0.689948,0.18487 0.119047,0.2062 -0.30392,0.48375 -0.184872,0.68995 0.266198,0.46107 0.843572,0.65978 1.195022,1.05969 0.22228,0.25292 0.253144,0.65142 0.505078,0.87482 0.178143,0.15797 0.511803,0.0269 0.689947,0.18487 0.915136,0.81149 0.210107,1.37407 0.825281,2.43958 0.119047,0.2062 0.570899,-0.0213 0.689947,0.18487 0.119047,0.2062 -0.303919,0.48376 -0.184869,0.68994 1.045018,1.81004 0.528715,-2.19639 1.195021,1.0597 0.04773,0.23326 -0.303919,0.48375 -0.184871,0.68995 0.11905,0.20619 0.570899,-0.0213 0.689947,0.18487 0.238097,0.41238 -0.607836,0.9675 -0.369741,1.37989 0.119047,0.2062 0.5709,-0.0213 0.689947,0.18487 0.238097,0.41239 -0.465207,0.91337 -0.369741,1.3799 0.0675,0.32988 0.437573,0.54493 0.505077,0.87481 0.04762,0.23274 -1.031459,3.84945 -1.109226,4.13969 -0.06162,0.22997 -0.123247,0.45996 -0.184869,0.68994 -0.06162,0.22998 -0.303919,0.48375 -0.184872,0.68995 0.119047,0.2062 0.642214,-0.0484 0.689947,0.18487 0.100629,0.49174 -0.840111,2.26804 -0.739482,2.75978 0.06751,0.32989 0.43757,0.54494 0.505075,0.87483 0.09547,0.46652 -0.465207,0.91336 -0.369741,1.37989 0.06751,0.32988 0.43757,0.54494 0.505076,0.87482 0.102151,0.49919 -1.022831,2.96849 -0.924352,3.44973 0.04773,0.23326 0.570896,-0.0213 0.689947,0.18487 0.119047,0.2062 -0.123248,0.45996 -0.184872,0.68995 -0.06162,0.22998 -0.123247,0.45996 -0.184872,0.68995 -0.616235,2.29982 -1.232471,4.59964 -1.848706,6.89946 -0.492988,1.83986 -0.985979,3.67973 -1.478967,5.51958 -0.06162,0.22998 0.02132,0.57091 -0.184869,0.68995 -0.206197,0.11904 -0.483753,-0.30391 -0.689946,-0.18488 -0.206198,0.11905 -0.0269,0.51181 -0.184872,0.68996 -0.223403,0.25193 -0.651418,0.25314 -0.874819,0.50508 -0.157968,0.17813 0.02133,0.57089 -0.18487,0.68994 -0.206197,0.11905 -0.48375,-0.30392 -0.689947,-0.18487 -0.206197,0.11905 -0.123247,0.45996 -0.184872,0.68995 -0.229982,-0.0616 -0.456686,-0.23261 -0.689947,-0.18487 -1.72989,0.35399 -0.328842,0.37083 -1.059688,1.19502 -2.205083,2.48669 0.245264,-0.72482 -1.564764,0.3202 -0.206197,0.11905 0.02133,0.5709 -0.184871,0.68995 -0.206197,0.11905 -0.75157,0.0451 -0.689948,-0.18487 0.08715,-0.32525 0.583213,-0.33672 0.874819,-0.50508 0.683307,-0.3945 1.922748,-1.27785 2.624452,-1.51522 2.764383,-0.93516 0.394818,0.007 2.94466,0.0495 0.53232,0.009 1.032443,-0.32916 1.564764,-0.3202 0.476124,0.008 0.90456,0.39827 1.379893,0.36974 0.336113,-0.0202 0.544939,-0.43758 0.874819,-0.50508 0.699784,-0.1432 1.370056,0.69781 2.069841,0.55461 0.233262,-0.0477 -0.02132,-0.5709 0.184872,-0.68995 0.412391,-0.23809 0.913372,0.46521 1.379894,0.36974 0.329881,-0.0675 0.544937,-0.43757 0.874816,-0.50507 0.466524,-0.0955 0.913372,0.46521 1.379895,0.36974 0.329883,-0.0675 0.544936,-0.43757 0.874818,-0.50508 0.233262,-0.0477 0.459965,0.12325 0.689948,0.18487 0.229982,0.0616 0.459964,0.12325 0.689947,0.18487 1.149911,0.30812 2.299823,0.61624 3.449734,0.92436 0.45337,0.12148 1.645804,0.58007 2.069841,0.55461 0.531442,-0.0319 1.032444,-0.32916 1.564764,-0.3202 0.476124,0.008 0.91993,0.24649 1.379894,0.36974 0.459965,0.12325 0.919929,0.2465 1.379894,0.36974"
       id="path4189"
       inkscape:connector-curvature="0" />
    <circle
       style="color:#000000;clip-rule:nonzero;display:inline;overflow:visible;visibility:visible;opacity:0.98999999;isolation:auto;mix-blend-mode:normal;color-interpolation:sRGB;color-interpolation-filters:linearRGB;solid-color:#000000;solid-opacity:1;fill:#ffffff;fill-opacity:1;fill-rule:evenodd;stroke:#776e65;stroke-width:10;stroke-linecap:butt;stroke-linejoin:bevel;stroke-miterlimit:4;stroke-dasharray:none;stroke-dashoffset:0;stroke-opacity:1;color-rendering:auto;image-rendering:auto;shape-rendering:auto;text-rendering:auto;enable-background:accumulate"
       id="path4161-4"
       cx="772.51862"
       cy="-224.15587"
       r="71.236053"
       inkscape:export-filename="/home/shinsuke/repos/endojo/apps/core/static/img/logo.png"
       inkscape:export-xdpi="90"
       inkscape:export-ydpi="90" />
    <ellipse
       style="color:#000000;clip-rule:nonzero;display:inline;overflow:visible;visibility:visible;opacity:0.98999999;isolation:auto;mix-blend-mode:normal;color-interpolation:sRGB;color-interpolation-filters:linearRGB;solid-color:#000000;solid-opacity:1;fill:#ffffff;fill-opacity:1;fill-rule:evenodd;stroke:#776e65;stroke-width:10;stroke-linecap:butt;stroke-linejoin:bevel;stroke-miterlimit:4;stroke-dasharray:none;stroke-dashoffset:0;stroke-opacity:1;color-rendering:auto;image-rendering:auto;shape-rendering:auto;text-rendering:auto;enable-background:accumulate"
       id="path4163-7"
       cx="564.37561"
       cy="-443.22449"
       rx="33.214287"
       ry="52.142857"
       transform="matrix(0.8660254,0.5,-0.5,0.8660254,0,0)"
       inkscape:export-filename="/home/shinsuke/repos/endojo/apps/core/static/img/logo.png"
       inkscape:export-xdpi="90"
       inkscape:export-ydpi="90" />
    <circle
       style="color:#000000;clip-rule:nonzero;display:inline;overflow:visible;visibility:visible;opacity:0.98999999;isolation:auto;mix-blend-mode:normal;color-interpolation:sRGB;color-interpolation-filters:linearRGB;solid-color:#000000;solid-opacity:1;fill:#ffffff;fill-opacity:1;fill-rule:evenodd;stroke:#776e65;stroke-width:10;stroke-linecap:butt;stroke-linejoin:bevel;stroke-miterlimit:4;stroke-dasharray:none;stroke-dashoffset:0;stroke-opacity:1;color-rendering:auto;image-rendering:auto;shape-rendering:auto;text-rendering:auto;enable-background:accumulate"
       id="path4167-4"
       cx="640.37579"
       cy="-191.29869"
       r="43.829369"
       inkscape:export-filename="/home/shinsuke/repos/endojo/apps/core/static/img/logo.png"
       inkscape:export-xdpi="90"
       inkscape:export-ydpi="90" />
    <circle
       style="color:#000000;clip-rule:nonzero;display:inline;overflow:visible;visibility:visible;opacity:0.98999999;isolation:auto;mix-blend-mode:normal;color-interpolation:sRGB;color-interpolation-filters:linearRGB;solid-color:#000000;solid-opacity:1;fill:#ffffff;fill-opacity:1;fill-rule:evenodd;stroke:#776e65;stroke-width:10;stroke-linecap:butt;stroke-linejoin:bevel;stroke-miterlimit:4;stroke-dasharray:none;stroke-dashoffset:0;stroke-opacity:1;color-rendering:auto;image-rendering:auto;shape-rendering:auto;text-rendering:auto;enable-background:accumulate"
       id="path4169-8"
       cx="781.80438"
       cy="-80.584465"
       r="22.5"
       inkscape:export-filename="/home/shinsuke/repos/endojo/apps/core/static/img/logo.png"
       inkscape:export-xdpi="90"
       inkscape:export-ydpi="90" />
    <ellipse
       style="color:#000000;clip-rule:nonzero;display:inline;overflow:visible;visibility:visible;opacity:0.98999999;isolation:auto;mix-blend-mode:normal;color-interpolation:sRGB;color-interpolation-filters:linearRGB;solid-color:#000000;solid-opacity:1;fill:#ffffff;fill-opacity:1;fill-rule:evenodd;stroke:#776e65;stroke-width:10;stroke-linecap:butt;stroke-linejoin:bevel;stroke-miterlimit:4;stroke-dasharray:none;stroke-dashoffset:0;stroke-opacity:1;color-rendering:auto;image-rendering:auto;shape-rendering:auto;text-rendering:auto;enable-background:accumulate"
       id="path4171-5"
       cx="168.94237"
       cy="-708.65417"
       rx="19.642857"
       ry="30.714285"
       transform="matrix(0.25881905,0.96592583,-0.96592583,0.25881905,0,0)"
       inkscape:export-filename="/home/shinsuke/repos/endojo/apps/core/static/img/logo.png"
       inkscape:export-xdpi="90"
       inkscape:export-ydpi="90" />
    <ellipse
       style="color:#000000;clip-rule:nonzero;display:inline;overflow:visible;visibility:visible;opacity:0.98999999;isolation:auto;mix-blend-mode:normal;color-interpolation:sRGB;color-interpolation-filters:linearRGB;solid-color:#000000;solid-opacity:1;fill:#ffffff;fill-opacity:1;fill-rule:evenodd;stroke:#776e65;stroke-width:10;stroke-linecap:butt;stroke-linejoin:bevel;stroke-miterlimit:4;stroke-dasharray:none;stroke-dashoffset:0;stroke-opacity:1;color-rendering:auto;image-rendering:auto;shape-rendering:auto;text-rendering:auto;enable-background:accumulate"
       id="path4173-8"
       cx="581.32819"
       cy="268.14746"
       rx="22.5"
       ry="33.214287"
       transform="matrix(0.8660254,-0.5,0.5,0.8660254,0,0)"
       inkscape:export-filename="/home/shinsuke/repos/endojo/apps/core/static/img/logo.png"
       inkscape:export-xdpi="90"
       inkscape:export-ydpi="90" />
    <path
       style="fill:none;fill-rule:evenodd;stroke:#776e65;stroke-width:11.38842773;stroke-linecap:butt;stroke-linejoin:miter;stroke-miterlimit:4;stroke-dasharray:none;stroke-opacity:1"
       d="m 679.62783,-105.29385 c 53.63886,27.275987 53.63886,27.275987 53.63886,27.275987"
       id="path4177-2"
       inkscape:connector-curvature="0"
       inkscape:export-filename="/home/shinsuke/repos/endojo/apps/core/static/img/logo.png"
       inkscape:export-xdpi="90"
       inkscape:export-ydpi="90" />
    <path
       style="fill:none;fill-rule:evenodd;stroke:#776e65;stroke-width:5;stroke-linecap:butt;stroke-linejoin:miter;stroke-miterlimit:4;stroke-dasharray:none;stroke-opacity:1"
       d="M 697.87583,-98.798723 C 739.3044,-138.08443 739.3044,-138.08443 739.3044,-138.08443"
       id="path4181-6"
       inkscape:connector-curvature="0"
       inkscape:export-filename="/home/shinsuke/repos/endojo/apps/core/static/img/logo.png"
       inkscape:export-xdpi="90"
       inkscape:export-ydpi="90" />
    <path
       style="fill:none;fill-rule:evenodd;stroke:#776e65;stroke-width:5;stroke-linecap:butt;stroke-linejoin:miter;stroke-miterlimit:4;stroke-dasharray:none;stroke-opacity:1"
       d="m 707.87583,-148.08443 c 4.28571,34.28571 4.28571,33.57143 4.28571,33.57143"
       id="path4183-0"
       inkscape:connector-curvature="0"
       inkscape:export-filename="/home/shinsuke/repos/endojo/apps/core/static/img/logo.png"
       inkscape:export-xdpi="90"
       inkscape:export-ydpi="90" />
    <path
       style="fill:none;fill-rule:evenodd;stroke:#776e65;stroke-width:10;stroke-linecap:butt;stroke-linejoin:miter;stroke-miterlimit:4;stroke-dasharray:none;stroke-opacity:1"
       d="m 640.90269,-265.01534 c -1.00442,-1.20451 -2.94752,-0.32209 -4.13967,-1.10922 -0.281,-0.18553 -0.22409,-0.68929 -0.50509,-0.87481 -1.66901,-1.10199 -1.02669,0.13412 -2.06983,-0.55461 -0.44429,-0.29335 -0.72954,-0.80129 -1.19502,-1.0597 -3.14084,-0.84158 -0.12666,0.31466 -1.88497,-1.24455 -0.17815,-0.15797 -0.51181,-0.0269 -0.68996,-0.18487 -0.25193,-0.22341 -0.33671,-0.58322 -0.50507,-0.87482 -0.33671,-0.58321 -0.59434,-1.21991 -1.01015,-1.74964 -0.65746,-0.83758 -1.73259,-1.2818 -2.39005,-2.11937 -1.2349,-1.57323 -1.79556,-3.67569 -3.03045,-5.24892 -0.65746,-0.83757 -1.68715,-1.31955 -2.39005,-2.11937 -1.40963,-1.60399 -0.0368,-0.17978 -0.32021,-1.56477 -0.12846,-0.62777 -0.88168,-1.12186 -1.01015,-1.74963 -0.0477,-0.23326 0.2326,-0.45669 0.18487,-0.68995 -0.13501,-0.65976 -0.79435,-1.11171 -1.01015,-1.74963 -0.17061,-0.50433 -0.054,-1.1037 -0.32021,-1.56477 -0.2662,-0.46107 -0.92882,-0.59861 -1.19502,-1.05969 -0.2662,-0.46107 -0.1496,-1.06044 -0.32021,-1.56476 -0.63199,-1.8682 -0.47337,0.19025 -1.70009,-1.93451 -0.85389,-4.1727 0.50507,0.87482 -1.51523,-2.62446 -0.11905,-0.20618 0.30391,-0.48374 0.18487,-0.68994 -0.2662,-0.46106 -0.92883,-0.59862 -1.19502,-1.05969 -0.11905,-0.2062 0.30391,-0.48374 0.18486,-0.68994 -0.11904,-0.2062 -0.5709,0.0213 -0.68994,-0.18487 -0.11905,-0.2062 -0.0451,-0.75158 0.18487,-0.68995 0.73533,0.19703 0.51969,2.11735 0.64041,3.12952 0.1261,1.05731 0.42694,2.08636 0.64041,3.12954 0.42694,2.08635 0.85388,4.1727 1.28082,6.25905 0.10674,0.52159 0.21347,1.04318 0.32021,1.56477 0.10674,0.52159 0.32916,1.03244 0.3202,1.56477 -0.008,0.47612 -0.36173,0.90376 -0.36974,1.37989 -0.75045,1.13734 0.77385,1.58266 0.82528,2.43958 0.0285,0.47534 -0.36173,0.90377 -0.36974,1.3799 -0.009,0.53232 0.32916,1.03244 0.32021,1.56476 -0.016,0.95225 -0.79655,1.80912 -0.73949,2.75979 0.0202,0.33611 0.48491,0.53871 0.50508,0.87482 0.0428,0.713 -0.36974,1.37989 -0.55461,2.06984 -0.063,0.23504 -0.51496,2.41973 -0.73948,2.75979 -0.29335,0.44429 -0.76635,0.75073 -1.05969,1.19502 -0.13119,0.19869 -0.0269,0.5118 -0.18487,0.68994 -0.2234,0.25194 -0.65142,0.25315 -0.87482,0.50508 -0.15797,0.17815 -0.0269,0.51181 -0.18487,0.68995 -0.2234,0.25193 -0.62189,0.28279 -0.87482,0.50508 -0.79982,0.7029 -1.31956,1.68714 -2.11938,2.39004 -1.48142,1.30192 -0.31482,-0.40144 -2.43958,0.82528 -0.2062,0.11905 0.0213,0.5709 -0.18487,0.68995 -0.46107,0.2662 -1.06044,0.1496 -1.56477,0.32021 -1.86083,0.62949 0.28509,0.66173 -2.43958,0.82528 -2.2373,0.13429 1.85339,-1.25439 -2.25471,0.13533 -1.86083,0.6295 0.28508,0.66174 -2.43958,0.82528 -0.23767,0.0143 -0.45669,-0.2326 -0.68995,-0.18487 -0.32988,0.0675 -0.5387,0.48491 -0.87482,0.50508 -0.47533,0.0285 -0.90377,-0.36173 -1.37989,-0.36974 -0.53232,-0.009 -1.03333,0.28831 -1.56477,0.32021 -0.23767,0.0143 -0.45668,-0.23261 -0.68994,-0.18487 -0.32988,0.0675 -0.54494,0.43757 -0.87482,0.50507 -0.23326,0.0477 -0.45996,-0.12325 -0.68995,-0.18487 -0.2916,0.16836 -0.54493,0.43757 -0.87482,0.50508 -0.23326,0.0477 -0.48375,-0.30392 -0.68994,-0.18487 -0.2062,0.11905 -0.12325,0.45996 -0.18487,0.68994 -0.52159,0.10674 -1.03333,0.28831 -1.56477,0.32021 -0.60494,0.0363 -2.25983,-0.84179 -2.75979,-0.73948 -0.32988,0.0675 -0.54493,0.43757 -0.87481,0.50507 -0.20572,0.0421 -2.399,-0.64281 -2.75979,-0.73949 -1.83986,-0.49298 -3.67972,-0.98597 -5.51958,-1.47896 -1.83985,-0.49299 -3.67971,-0.98598 -5.51957,-1.47897 -0.22998,-0.0616 -0.45997,-0.12324 -0.68995,-0.18487 -0.22998,-0.0616 -0.75157,0.0451 -0.68995,-0.18487 0.0616,-0.22998 0.809,0.39107 0.68995,0.18487 -0.2662,-0.46107 -0.92882,-0.59861 -1.19502,-1.05968 -0.11905,-0.2062 0.30392,-0.48375 0.18487,-0.68995 -1.01519,-0.27202 -0.5709,0.0213 -1.19503,-1.05969 -0.16835,-0.29161 -0.33671,-0.58321 -0.50507,-0.87482 -0.16836,-0.2916 -0.79668,-0.70646 -0.50508,-0.87481 0.29161,-0.16836 0.33672,0.58321 0.50508,0.87481 0.16836,0.29161 0.33672,0.58321 0.50507,0.87482 0.8418,1.45803 1.68359,2.91606 2.52538,4.37409 0.16836,0.29161 0.39718,0.55586 0.50508,0.87482 0.17061,0.50432 0.12189,1.07068 0.32021,1.56476 0.25085,0.62497 0.75929,1.12467 1.01015,1.74963 1.89129,4.71188 -1.76249,-2.04257 1.33036,3.31441 0.33671,0.58321 0.7593,1.12467 1.01015,1.74964 0.39664,0.98815 0.2992,2.12088 0.64041,3.12952 0.2158,0.63792 0.79435,1.11172 1.01015,1.74964 0.17061,0.50432 0.21348,1.04317 0.32021,1.56476 0.10674,0.52159 0.28831,1.03333 0.3202,1.56477 0.0143,0.23766 -0.2326,0.45668 -0.18487,0.68995 0.48825,2.38592 0.88509,-1.11532 0.82529,2.43958 -0.008,0.47612 -0.2465,0.91993 -0.36975,1.37989 -0.0616,0.22998 -0.2326,0.45669 -0.18487,0.68995 0.0675,0.32988 0.43757,0.54493 0.50508,0.87482 0.0477,0.23326 -0.12325,0.45996 -0.18487,0.68995 -0.12325,0.45996 -0.2465,0.91993 -0.36974,1.37989 -0.36974,1.37989 -0.73949,2.75979 -1.10923,4.13968 -0.30812,1.14991 -0.61623,2.29982 -0.92435,3.44973 -0.12325,0.45997 -0.0538,1.02361 -0.36974,1.3799 -0.15797,0.17814 -0.45669,-0.23261 -0.68995,-0.18487 -0.32988,0.0675 -0.62189,0.2828 -0.87482,0.50508 -0.39991,0.35145 -0.76634,0.75072 -1.05969,1.19502 -0.76632,1.16065 0.96515,0.60919 -1.24456,1.88497 -0.20619,0.11905 -0.45227,-0.19914 -0.68994,-0.18487 -0.53144,0.0319 -1.06044,0.1496 -1.56477,0.3202 -0.63792,0.21581 -1.11171,0.79436 -1.74963,1.01015 -0.50432,0.17061 -1.06045,0.14961 -1.56477,0.32021 -0.31896,0.10791 -0.54493,0.43757 -0.87482,0.50508 -0.23325,0.0477 -0.45668,-0.2326 -0.68994,-0.18487 -0.59765,0.1223 -2.11553,1.48468 -2.62445,1.51522 -0.47534,0.0285 -0.91338,-0.46521 -1.3799,-0.36974 -0.23326,0.0477 -0.0269,0.51181 -0.18487,0.68995 -2.20508,2.4867 0.24526,-0.72482 -1.56476,0.3202 -0.46108,0.26621 -0.65978,0.84357 -1.05969,1.19503 -0.25293,0.22228 -0.58322,0.33672 -0.87482,0.50508 -0.29161,0.16836 -0.54494,0.43757 -0.87482,0.50508 -0.23326,0.0477 -0.45668,-0.23261 -0.68995,-0.18487 -0.32988,0.0675 -0.54493,0.43757 -0.87481,0.50507 -0.23326,0.0477 -0.48375,-0.30392 -0.68995,-0.18487 -0.2062,0.11904 0.0213,0.5709 -0.18487,0.68995 -0.2062,0.11905 -0.48375,-0.30392 -0.68995,-0.18487 -0.2062,0.11904 -0.0269,0.5118 -0.18487,0.68994 -0.2234,0.25193 -0.58321,0.33671 -0.87482,0.50508 -0.2916,0.16835 -0.54493,0.43757 -0.87482,0.50508 -0.46652,0.0955 -0.91337,-0.46521 -1.37989,-0.36974 -0.65976,0.135 -1.08987,0.87514 -1.74964,1.01015 -0.46652,0.0955 -0.96749,-0.60784 -1.37989,-0.36974 -0.2062,0.11905 -0.30392,0.48374 -0.18487,0.68994 0.003,0.005 2.04833,0.54263 2.06984,0.55461 0.46548,0.25841 0.79669,0.70646 1.19503,1.05969 0.39834,0.35323 0.79668,0.70646 1.19502,1.05969 0.45997,0.12324 0.98251,0.10737 1.37989,0.36974 0.281,0.18553 0.2828,0.62189 0.50508,0.87482 0.35145,0.39991 0.84357,0.65977 1.19502,1.05969 0.22228,0.25292 0.25314,0.65142 0.50508,0.87481 0.17814,0.15797 0.5118,0.0269 0.68995,0.18487 0.50386,0.44681 0.56559,1.24379 1.01015,1.74964 0.35145,0.39991 0.84357,0.65978 1.19502,1.05969 0.48901,0.55643 1.12072,1.94115 1.51523,2.62446 0.16836,0.2916 0.25314,0.65141 0.50508,0.87481 0.17814,0.15797 0.5118,0.0269 0.68994,0.18487 0.89853,0.79676 0.11163,0.95287 1.01016,1.74963 0.17814,0.15797 0.5709,-0.0213 0.68994,0.18488 0.11905,0.20619 -0.30391,0.48375 -0.18487,0.68995 0.11905,0.20619 0.51181,0.0269 0.68995,0.18487 0.25193,0.22339 0.25314,0.65141 0.50508,0.87481 0.17814,0.15797 0.57089,-0.0213 0.68994,0.18487 0.11905,0.2062 -0.30392,0.48375 -0.18487,0.68995 0.2662,0.46107 0.84357,0.65978 1.19502,1.05969 0.22228,0.25292 0.25315,0.65142 0.50508,0.87482 0.17815,0.15797 0.51181,0.0269 0.68995,0.18487 0.91514,0.81149 0.21011,1.37407 0.82528,2.43958 0.11905,0.2062 0.5709,-0.0213 0.68995,0.18487 0.11904,0.2062 -0.30392,0.48376 -0.18487,0.68994 1.04502,1.81004 0.52871,-2.19639 1.19502,1.0597 0.0477,0.23326 -0.30392,0.48375 -0.18487,0.68995 0.11905,0.20619 0.5709,-0.0213 0.68995,0.18487 0.23809,0.41238 -0.60784,0.9675 -0.36975,1.37989 0.11905,0.2062 0.5709,-0.0213 0.68995,0.18487 0.2381,0.41239 -0.46521,0.91337 -0.36974,1.3799 0.0675,0.32988 0.43757,0.54493 0.50508,0.87481 0.0476,0.23274 -1.03146,3.84945 -1.10923,4.13969 -0.0616,0.22997 -0.12325,0.45996 -0.18487,0.68994 -0.0616,0.22998 -0.30392,0.48375 -0.18487,0.68995 0.11905,0.2062 0.64221,-0.0484 0.68995,0.18487 0.10063,0.49174 -0.84011,2.26804 -0.73948,2.75978 0.0675,0.32989 0.43757,0.54494 0.50507,0.87483 0.0955,0.46652 -0.46521,0.91336 -0.36974,1.37989 0.0675,0.32988 0.43757,0.54494 0.50508,0.87482 0.10215,0.49919 -1.02284,2.96849 -0.92436,3.44973 0.0477,0.23326 0.5709,-0.0213 0.68995,0.18487 0.11905,0.2062 -0.12325,0.45996 -0.18487,0.68995 -0.0616,0.22998 -0.12325,0.45996 -0.18487,0.68995 -0.61624,2.29982 -1.23247,4.59964 -1.84871,6.89946 -0.49299,1.83986 -0.98598,3.67973 -1.47897,5.51958 -0.0616,0.22998 0.0213,0.57091 -0.18487,0.68995 -0.20619,0.11904 -0.48375,-0.30391 -0.68994,-0.18488 -0.2062,0.11905 -0.0269,0.51181 -0.18487,0.68996 -0.22341,0.25193 -0.65142,0.25314 -0.87482,0.50508 -0.15797,0.17813 0.0213,0.57089 -0.18487,0.68994 -0.2062,0.11905 -0.48375,-0.30392 -0.68995,-0.18487 -0.2062,0.11905 -0.12325,0.45996 -0.18487,0.68995 -0.22998,-0.0616 -0.45669,-0.23261 -0.68995,-0.18487 -1.72989,0.35399 -0.32884,0.37083 -1.05969,1.19502 -2.20508,2.48669 0.24527,-0.72482 -1.56476,0.3202 -0.2062,0.11905 0.0213,0.5709 -0.18487,0.68995 -0.2062,0.11905 -0.75157,0.0451 -0.68995,-0.18487 0.0872,-0.32525 0.58321,-0.33672 0.87482,-0.50508 0.68331,-0.3945 1.92275,-1.27785 2.62445,-1.51522 2.76438,-0.93516 0.39482,0.007 2.94466,0.0495 0.53232,0.009 1.03244,-0.32916 1.56477,-0.3202 0.47612,0.008 0.90456,0.39827 1.37989,0.36974 0.33611,-0.0202 0.54494,-0.43758 0.87482,-0.50508 0.69978,-0.1432 1.37005,0.69781 2.06984,0.55461 0.23326,-0.0477 -0.0213,-0.5709 0.18487,-0.68995 0.41239,-0.23809 0.91337,0.46521 1.37989,0.36974 0.32989,-0.0675 0.54494,-0.43757 0.87482,-0.50507 0.46652,-0.0955 0.91337,0.46521 1.3799,0.36974 0.32988,-0.0675 0.54493,-0.43757 0.87481,-0.50508 0.23327,-0.0477 0.45997,0.12325 0.68995,0.18487 0.22998,0.0616 0.45997,0.12325 0.68995,0.18487 1.14991,0.30812 2.29982,0.61624 3.44973,0.92436 0.45337,0.12148 1.64581,0.58007 2.06984,0.55461 0.53145,-0.0319 1.03245,-0.32916 1.56477,-0.3202 0.47612,0.008 0.91993,0.24649 1.37989,0.36974 0.45997,0.12325 0.91993,0.2465 1.3799,0.36974"
       id="path4189-6"
       inkscape:connector-curvature="0"
       inkscape:export-filename="/home/shinsuke/repos/endojo/apps/core/static/img/logo.png"
       inkscape:export-xdpi="90"
       inkscape:export-ydpi="90" />
  </g>
  <g
     inkscape:label="Layer 1"
     inkscape:groupmode="layer"
     id="layer1">
    <flowRoot
       xml:space="preserve"
       id="flowRoot4136"
       style="fill:black;stroke:none;stroke-opacity:1;stroke-width:1px;stroke-linejoin:miter;stroke-linecap:butt;fill-opacity:1;font-family:sans-serif;font-style:normal;font-weight:normal;font-size:40px;line-height:125%;letter-spacing:0px;word-spacing:0px"><flowRegion
         id="flowRegion4138"><rect
           id="rect4140"
           width="420.71429"
           height="242.85715"
           x="142.14285"
           y="313.07648" /></flowRegion><flowPara
         id="flowPara4142" /></flowRoot>    <text
       xml:space="preserve"
       style="font-style:normal;font-variant:normal;font-weight:bold;font-stretch:normal;font-size:180px;line-height:125%;font-family:'Noto Sans Ethiopic';-inkscape-font-specification:'Noto Sans Ethiopic, Bold';text-align:start;letter-spacing:0px;word-spacing:0px;writing-mode:lr-tb;text-anchor:start;fill:#776e65;fill-opacity:1;stroke:none;stroke-width:1px;stroke-linecap:butt;stroke-linejoin:miter;stroke-opacity:1"
       x="31.428591"
       y="-269.78064"
       id="text4144"
       sodipodi:linespacing="125%"
       inkscape:export-filename="/home/shinsuke/repos/endojo/apps/core/static/img/logo.png"
       inkscape:export-xdpi="90"
       inkscape:export-ydpi="90"><tspan
         sodipodi:role="line"
         id="tspan4146"
         x="31.428591"
         y="-269.78064">En<tspan
   style="font-style:normal;font-variant:normal;font-weight:bold;font-stretch:normal;font-size:180px;line-height:125%;font-family:'Noto Sans Ethiopic';-inkscape-font-specification:'Noto Sans Ethiopic, Bold';text-align:start;writing-mode:lr-tb;text-anchor:start;fill:#776e65;fill-opacity:1"
   id="tspan4150" /></tspan><tspan
         sodipodi:role="line"
         x="31.428591"
         y="-44.78064"
         id="tspan4148">Dojo</tspan></text>
    <text
       xml:space="preserve"
       style="font-style:normal;font-variant:normal;font-weight:bold;font-stretch:normal;font-size:180px;line-height:125%;font-family:'Noto Sans Ethiopic';-inkscape-font-specification:'Noto Sans Ethiopic, Bold';text-align:start;letter-spacing:0px;word-spacing:0px;writing-mode:lr-tb;text-anchor:start;fill:#776e65;fill-opacity:1;stroke:none;stroke-width:1px;stroke-linecap:butt;stroke-linejoin:miter;stroke-opacity:1"
       x="375.22781"
       y="-160.17673"
       id="text4152"
       sodipodi:linespacing="125%"
       transform="matrix(0.96592583,-0.25881905,0.25881905,0.96592583,0,0)"
       inkscape:export-filename="/home/shinsuke/repos/endojo/apps/core/static/img/logo.png"
       inkscape:export-xdpi="90"
       inkscape:export-ydpi="90"><tspan
         sodipodi:role="line"
         id="tspan4154"
         x="375.22781"
         y="-160.17673"
         style="font-style:normal;font-variant:normal;font-weight:bold;font-stretch:normal;font-size:180px;line-height:125%;font-family:'Noto Sans Ethiopic';-inkscape-font-specification:'Noto Sans Ethiopic, Bold';text-align:start;writing-mode:lr-tb;text-anchor:start;fill:#776e65;fill-opacity:1"><tspan
           style="fill:#aa0000"
           id="tspan4254">g</tspan><tspan
           style="fill:#d45500"
           id="tspan4258">l</tspan><tspan
           style="fill:#d4aa00"
           id="tspan4260">i</tspan><tspan
           style="fill:#668000"
           id="tspan4262">s</tspan><tspan
           style="fill:#003380"
           id="tspan4264">h</tspan></tspan></text>
    <text
       xml:space="preserve"
       style="font-style:normal;font-variant:normal;font-weight:bold;font-stretch:normal;font-size:180px;line-height:125%;font-family:'Noto Sans Ethiopic';-inkscape-font-specification:'Noto Sans Ethiopic, Bold';text-align:start;letter-spacing:0px;word-spacing:0px;writing-mode:lr-tb;text-anchor:start;fill:#776e65;fill-opacity:1;stroke:none;stroke-width:1px;stroke-linecap:butt;stroke-linejoin:miter;stroke-opacity:1"
       x="819.11206"
       y="351.76303"
       id="text4144-9"
       sodipodi:linespacing="125%"
       inkscape:export-filename="/home/shinsuke/repos/endojo/apps/core/static/img/icon.png"
       inkscape:export-xdpi="90"
       inkscape:export-ydpi="90"><tspan
         sodipodi:role="line"
         x="819.11206"
         y="351.76303"
         id="tspan4148-9">En</tspan></text>
    <text
       xml:space="preserve"
       style="font-style:normal;font-variant:normal;font-weight:bold;font-stretch:normal;font-size:175.76298523px;line-height:125%;font-family:'Noto Sans Ethiopic';-inkscape-font-specification:'Noto Sans Ethiopic, Bold';text-align:start;letter-spacing:0px;word-spacing:0px;writing-mode:lr-tb;text-anchor:start;fill:#776e65;fill-opacity:1;stroke:none;stroke-width:1.30000007;stroke-linecap:butt;stroke-linejoin:miter;stroke-miterlimit:4;stroke-dasharray:none;stroke-opacity:1;filter:url(#filter4244)"
       x="1232.2856"
       y="476.93289"
       id="text4144-9-1"
       sodipodi:linespacing="125%"
       inkscape:export-filename="/home/shinsuke/repos/endojo/apps/core/static/img/icon.png"
       inkscape:export-xdpi="90"
       inkscape:export-ydpi="90"
       transform="scale(0.66803069,1.4969372)"><tspan
         sodipodi:role="line"
         x="1232.2856"
         y="476.93289"
         id="tspan4148-9-2"
         style="fill:#faf8ef;fill-opacity:1">KNOWING</tspan></text>
    <path
       style="fill:none;fill-rule:evenodd;stroke:#000000;stroke-width:1px;stroke-linecap:butt;stroke-linejoin:miter;stroke-opacity:1"
       d="m 738.57143,615.21935 c 102.85714,-190 102.85714,-190 102.85714,-190 l 0,57.14285 652.85713,0"
       id="path4199"
       inkscape:connector-curvature="0" />
    <path
       style="fill:none;fill-rule:evenodd;stroke:#000000;stroke-width:1px;stroke-linecap:butt;stroke-linejoin:miter;stroke-opacity:1"
       d="m 739.50558,613.07644 c 102.8571,190.0001 102.8571,190.0001 102.8571,190.0001 l 0,-57.1429 652.85722,0"
       id="path4199-0"
       inkscape:connector-curvature="0" />
    <path
       style="fill:none;fill-rule:evenodd;stroke:#000000;stroke-width:1px;stroke-linecap:butt;stroke-linejoin:miter;stroke-opacity:1"
       d="m 1492.8571,479.50506 0,268.57143"
       id="path4216"
       inkscape:connector-curvature="0" />
    <path
       style="color:#000000;clip-rule:nonzero;display:inline;overflow:visible;visibility:visible;opacity:0.98999999;isolation:auto;mix-blend-mode:normal;color-interpolation:sRGB;color-interpolation-filters:linearRGB;solid-color:#000000;solid-opacity:1;fill:#776e65;fill-opacity:1;fill-rule:evenodd;stroke:none;stroke-width:1.29999995;stroke-linecap:butt;stroke-linejoin:bevel;stroke-miterlimit:4;stroke-dasharray:none;stroke-dashoffset:0;stroke-opacity:1;color-rendering:auto;image-rendering:auto;shape-rendering:auto;text-rendering:auto;enable-background:accumulate"
       d="m 87.596371,1661.6808 -49.441314,-91.3017 49.441314,-91.3695 49.441299,-91.3696 0.38866,26.3218 0.38867,26.3217 325.68276,0 325.6828,0 0,130.7143 0,130.7143 -325.6821,0 -325.68205,0 -0.38937,25.6351 -0.38937,25.6352 -49.441299,-91.3016 z m 286.088789,9.9016 c 21.4462,-10.867 33.7808,-59.2988 29.7082,-116.6491 -3.5952,-50.6277 -18.9241,-78.9696 -42.8113,-79.1546 -10.2249,-0.079 -16.1629,2.4372 -22.8375,9.6783 -14.6106,15.8506 -22.8497,48.2403 -22.8497,89.8265 0,72.1787 25.1361,113.3517 58.7903,96.2989 z m 375.4233,0.6219 c 2.7104,-1.1073 8.3354,-4.642 12.5,-7.855 l 7.5721,-5.8418 0,-46.9691 0,-46.9692 -17.9025,0 -17.9025,0 0.4025,16.7858 0.4025,16.7857 6.7857,0.4354 6.7857,0.4354 0,17.8518 0,17.8517 -5.3571,2.2495 c -4.665,1.9588 -6.0955,1.9955 -11.0715,0.2842 -12.2691,-4.2194 -18.9618,-22.0347 -20.3268,-54.108 -2.5563,-60.0641 18.2652,-86.862 46.8952,-60.3557 l 8.4316,7.8063 0,-20.8543 0,-20.8543 -6.7161,-4.8739 c -8.0679,-5.8549 -15.8153,-8.383 -25.4267,-8.2971 -16.7992,0.1501 -28.6351,10.5937 -37.6595,33.2296 -11.1286,27.9141 -13.157,81.9599 -4.4414,118.3434 9.2567,38.6427 30.8194,55.6269 57.0288,44.9196 z m -595.60073,-37.2779 0.0415,-36.7857 16.64591,36.7857 16.64591,36.7857 14.02688,0 c 7.7148,0 14.0269,-0.5315 14.0269,-1.1811 0,-0.6496 -9.96428,-23.2403 -22.14285,-50.2015 -12.17858,-26.9613 -22.14286,-49.5459 -22.14286,-50.1881 0,-0.6421 9,-20.9424 20,-45.1116 11,-24.1693 20,-44.446 20,-45.0595 0,-0.6134 -5.94643,-1.0976 -13.21429,-1.0759 l -13.21428,0.039 -15.32745,33.8891 -15.32744,33.8891 -0.0297,-33.9285 -0.0297,-33.9286 -11.42857,0 -11.42857,0 0,96.4286 0,96.4286 11.42857,0 11.42857,0 0.0415,-36.7857 z m 90.30064,-25.7143 0.37216,-62.5 9.08983,38.5714 c 4.99941,21.2143 11.6598,49.3393 14.80085,62.5 l 5.711,23.9286 12.69916,0 12.69919,0 0,-96.4286 0,-96.4285 -10.69946,0 -10.69943,0 -0.372,62.8075 -0.372,62.8075 -10.5127,-44.5932 c -5.78199,-24.5263 -12.44639,-52.7897 -14.80976,-62.8076 l -4.29705,-18.2142 -12.69025,0 -12.69024,0 0,96.4285 0,96.4286 10.69927,0 10.69927,0 0.37216,-62.5 z m 215.89919,58.5714 c 0.4147,-2.1607 3.8408,-33.8214 7.6135,-70.3571 3.7727,-36.5357 7.0172,-65.1429 7.21,-63.5714 0.1928,1.5714 3.2555,30.5 6.8059,64.2857 3.5505,33.7857 6.8407,64.1607 7.3117,67.5 l 0.8563,6.0714 13.1213,0 13.1214,0 9.7146,-93.2143 c 5.343,-51.2678 10.0422,-94.6607 10.4427,-96.4286 0.7081,-3.1258 0.4142,-3.2142 -10.6847,-3.2142 l -11.4129,0 -1.715,16.0714 c -7.4582,69.8912 -12.6501,115.6156 -12.8553,113.2143 -0.1343,-1.5714 -3.257,-31.1429 -6.9395,-65.7143 l -6.6954,-62.8572 -11.0259,-0.4164 c -10.4949,-0.3965 -11.059,-0.2589 -11.7158,2.8571 -0.3794,1.8005 -3.343,29.6308 -6.5857,61.8451 -3.2427,32.2143 -6.3507,59.7663 -6.9067,61.2268 -0.5559,1.4605 -3.8014,-23.9324 -7.2122,-56.4286 -3.4107,-32.4962 -6.5244,-61.4947 -6.9193,-64.4411 l -0.7179,-5.3571 -11.354,0 -11.354,0 0.767,3.9285 c 0.4219,2.1607 5.0198,44.75 10.2176,94.6429 5.1978,49.8929 9.705,91.5179 10.0159,92.5 0.3969,1.2535 4.377,1.7857 13.3539,1.7857 l 12.7885,0 0.754,-3.9286 z m 112.3301,-92.5 0,-96.4285 -11.4286,0 -11.4285,0 0,96.4285 0,96.4286 11.4285,0 11.4286,0 0,-96.4286 z m 42.9554,33.2143 0.098,-63.2143 10.443,43.5715 c 5.7437,23.9643 12.5215,52.4107 15.0619,63.2143 l 4.6189,19.6428 12.697,0 12.6971,0 0,-96.4286 0,-96.4285 -10.6993,0 -10.6993,0 -0.3721,62.4864 -0.3722,62.4864 -9.7937,-41.415 c -5.3865,-22.7782 -12.0407,-50.8971 -14.7871,-62.4864 l -4.9934,-21.0714 -12.7128,0 -12.7129,0 0,96.4285 0,96.4286 10.7143,0 10.7143,0 0.098,-63.2143 0,0 z"
       id="path4240"
       inkscape:connector-curvature="0"
       inkscape:export-filename="/home/shinsuke/repos/endojo/apps/core/static/img/knowing.png"
       inkscape:export-xdpi="90"
       inkscape:export-ydpi="90" />
    <path
       style="color:#000000;clip-rule:nonzero;display:inline;overflow:visible;visibility:visible;opacity:0.98999999;isolation:auto;mix-blend-mode:normal;color-interpolation:sRGB;color-interpolation-filters:linearRGB;solid-color:#000000;solid-opacity:1;fill:#776e65;fill-opacity:1;fill-rule:evenodd;stroke:none;stroke-width:1.29999995;stroke-linecap:butt;stroke-linejoin:bevel;stroke-miterlimit:4;stroke-dasharray:none;stroke-dashoffset:0;stroke-opacity:1;color-rendering:auto;image-rendering:auto;shape-rendering:auto;text-rendering:auto;enable-background:accumulate"
       d="m 354.90116,1637.0092 c -4.5407,-2.2973 -9.2422,-10.8166 -12.4362,-22.5348 -3.5848,-13.1523 -3.6298,-65.0716 -0.068,-78.1174 3.6175,-13.2485 7.6454,-20.259 12.9124,-22.4736 10.0564,-4.2283 17.3191,4.0228 21.9798,24.9716 3.3145,14.8973 3.3341,57.8817 0.033,72.6835 -3.0767,13.7966 -7.4395,22.5941 -12.5032,25.2126 -4.9074,2.5377 -5.3877,2.5502 -9.9183,0.2581 z"
       id="path4242"
       inkscape:connector-curvature="0"
       inkscape:export-filename="/home/shinsuke/repos/endojo/apps/core/static/img/knowing.png"
       inkscape:export-xdpi="90"
       inkscape:export-ydpi="90" />
    <flowRoot
       xml:space="preserve"
       id="flowRoot4248"
       style="fill:black;stroke:none;stroke-opacity:1;stroke-width:1px;stroke-linejoin:miter;stroke-linecap:butt;fill-opacity:1;font-family:sans-serif;font-style:normal;font-weight:normal;font-size:40px;line-height:125%;letter-spacing:0px;word-spacing:0px"><flowRegion
         id="flowRegion4250"><rect
           id="rect4252"
           width="397.14285"
           height="41.42857"
           x="1077.1428"
           y="598.07648" /></flowRegion><flowPara
         id="flowPara4254" /></flowRoot>    <path
       style="color:#000000;clip-rule:nonzero;display:inline;overflow:visible;visibility:visible;opacity:0.98999999;isolation:auto;mix-blend-mode:normal;color-interpolation:sRGB;color-interpolation-filters:linearRGB;solid-color:#000000;solid-opacity:1;fill:#776e65;fill-opacity:1;fill-rule:evenodd;stroke:none;stroke-width:1.29999995;stroke-linecap:butt;stroke-linejoin:bevel;stroke-miterlimit:4;stroke-dasharray:none;stroke-dashoffset:0;stroke-opacity:1;color-rendering:auto;image-rendering:auto;shape-rendering:auto;text-rendering:auto;enable-background:accumulate"
       d="m 824.64285,2126.5889 49.44132,-91.3017 -49.44132,-91.3695 -49.4413,-91.3696 -0.38866,26.3218 -0.38867,26.3217 -325.68275,0 -325.6828,0 0,130.7143 0,130.7143 325.6821,0 325.68204,0 0.38937,25.6351 0.38937,25.6352 49.4413,-91.3016 z m -286.08879,9.9016 c -21.44619,-10.867 -33.78079,-59.2988 -29.70819,-116.6491 3.5952,-50.6277 18.92409,-78.9696 42.81129,-79.1546 10.2249,-0.079 16.1629,2.4372 22.8375,9.6783 14.6106,15.8506 22.8497,48.2403 22.8497,89.8265 0,72.1787 -25.1361,113.3517 -58.7903,96.2989 z m -375.42329,0.6219 c -2.7104,-1.1073 -8.3354,-4.642 -12.5,-7.855 l -7.5721,-5.8418 0,-46.9691 0,-46.9692 17.9025,0 17.9025,0 -0.4025,16.7858 -0.4025,16.7857 -6.7857,0.4354 -6.7857,0.4354 0,17.8518 0,17.8517 5.3571,2.2495 c 4.665,1.9588 6.0955,1.9955 11.0715,0.2842 12.2691,-4.2194 18.9618,-22.0347 20.3268,-54.108 2.5563,-60.0641 -18.2652,-86.862 -46.8952,-60.3557 l -8.4316,7.8063 0,-20.8543 0,-20.8543 6.7161,-4.8739 c 8.0679,-5.8549 15.8153,-8.383 25.4267,-8.2971 16.7992,0.1501 28.6351,10.5937 37.6595,33.2296 11.1286,27.9141 13.157,81.9599 4.4414,118.3434 -9.2567,38.6427 -30.8194,55.6269 -57.0288,44.9196 z m 595.60073,-37.2779 -0.0415,-36.7857 -16.64591,36.7857 -16.64591,36.7857 -14.02689,0 c -7.7148,0 -14.0269,-0.5315 -14.0269,-1.1811 0,-0.6496 9.96428,-23.2403 22.14285,-50.2015 12.17859,-26.9613 22.14287,-49.5459 22.14287,-50.1881 0,-0.6421 -9,-20.9424 -20.00001,-45.1116 -11,-24.1693 -20,-44.446 -20,-45.0595 0,-0.6134 5.94643,-1.0976 13.21429,-1.0759 l 13.21429,0.039 15.32745,33.8891 15.32744,33.8891 0.0297,-33.9285 0.0297,-33.9286 11.42857,0 11.42856,0 0,96.4286 0,96.4286 -11.42856,0 -11.42857,0 -0.0415,-36.7857 z m -90.30065,-25.7143 -0.37216,-62.5 -9.08983,38.5714 c -4.99941,21.2143 -11.6598,49.3393 -14.80085,62.5 l -5.711,23.9286 -12.69916,0 -12.69919,0 0,-96.4286 0,-96.4285 10.69946,0 10.69943,0 0.372,62.8075 0.372,62.8075 10.5127,-44.5932 c 5.78199,-24.5263 12.44639,-52.7897 14.80976,-62.8076 l 4.29705,-18.2142 12.69025,0 12.69024,0 0,96.4285 0,96.4286 -10.69927,0 -10.69927,0 -0.37216,-62.5 z m -215.89918,58.5714 c -0.4147,-2.1607 -3.8408,-33.8214 -7.6135,-70.3571 -3.7727,-36.5357 -7.0172,-65.1429 -7.21,-63.5714 -0.1928,1.5714 -3.2555,30.5 -6.8059,64.2857 -3.5505,33.7857 -6.8407,64.1607 -7.3117,67.5 l -0.8563,6.0714 -13.1213,0 -13.1214,0 -9.7146,-93.2143 c -5.343,-51.2678 -10.0422,-94.6607 -10.4427,-96.4286 -0.7081,-3.1258 -0.4142,-3.2142 10.6847,-3.2142 l 11.4129,0 1.715,16.0714 c 7.4582,69.8912 12.6501,115.6156 12.8553,113.2143 0.1343,-1.5714 3.257,-31.1429 6.9395,-65.7143 l 6.6954,-62.8572 11.0259,-0.4164 c 10.4949,-0.3965 11.059,-0.2589 11.7158,2.8571 0.3794,1.8005 3.343,29.6308 6.5857,61.8451 3.2427,32.2143 6.3507,59.7663 6.9067,61.2268 0.5559,1.4605 3.8014,-23.9324 7.2122,-56.4286 3.4107,-32.4962 6.5244,-61.4947 6.9193,-64.4411 l 0.7179,-5.3571 11.354,0 11.354,0 -0.767,3.9285 c -0.4219,2.1607 -5.0198,44.75 -10.2176,94.6429 -5.1978,49.8929 -9.705,91.5179 -10.0159,92.5 -0.3969,1.2535 -4.377,1.7857 -13.3539,1.7857 l -12.7885,0 -0.754,-3.9286 z m -112.3301,-92.5 0,-96.4285 11.4286,0 11.4285,0 0,96.4285 0,96.4286 -11.4285,0 -11.4286,0 0,-96.4286 z m -42.9554,33.2143 -0.098,-63.2143 -10.443,43.5715 c -5.7437,23.9643 -12.5215,52.4107 -15.0619,63.2143 l -4.6189,19.6428 -12.697,0 -12.6971,0 0,-96.4286 0,-96.4285 10.6993,0 10.6993,0 0.3721,62.4864 0.3722,62.4864 9.7937,-41.415 c 5.3865,-22.7782 12.0407,-50.8971 14.7871,-62.4864 l 4.9934,-21.0714 12.7128,0 12.7129,0 0,96.4285 0,96.4286 -10.7143,0 -10.7143,0 -0.098,-63.2143 0,0 z"
       id="path4240-0"
       inkscape:connector-curvature="0"
       inkscape:export-filename="/home/shinsuke/repos/endojo/apps/core/static/img/unknowing.png"
       inkscape:export-xdpi="90"
       inkscape:export-ydpi="90" />
    <path
       style="color:#000000;clip-rule:nonzero;display:inline;overflow:visible;visibility:visible;opacity:0.98999999;isolation:auto;mix-blend-mode:normal;color-interpolation:sRGB;color-interpolation-filters:linearRGB;solid-color:#000000;solid-opacity:1;fill:#776e65;fill-opacity:1;fill-rule:evenodd;stroke:none;stroke-width:1.29999995;stroke-linecap:butt;stroke-linejoin:bevel;stroke-miterlimit:4;stroke-dasharray:none;stroke-dashoffset:0;stroke-opacity:1;color-rendering:auto;image-rendering:auto;shape-rendering:auto;text-rendering:auto;enable-background:accumulate"
       d="m 557.33806,2101.9173 c 4.5407,-2.2973 9.2422,-10.8166 12.4362,-22.5348 3.5848,-13.1523 3.6298,-65.0716 0.068,-78.1174 -3.6175,-13.2485 -7.6454,-20.259 -12.9124,-22.4736 -10.0564,-4.2283 -17.3191,4.0228 -21.9798,24.9716 -3.3145,14.8973 -3.3341,57.8817 -0.033,72.6835 3.0767,13.7966 7.4395,22.5941 12.5032,25.2126 4.9074,2.5377 5.3877,2.5502 9.9183,0.2581 z"
       id="path4242-3"
       inkscape:connector-curvature="0"
       inkscape:export-filename="/home/shinsuke/repos/endojo/apps/core/static/img/unknowing.png"
       inkscape:export-xdpi="90"
       inkscape:export-ydpi="90" />
    <path
       style="color:#000000;clip-rule:nonzero;display:inline;overflow:visible;visibility:visible;opacity:0.98999999;isolation:auto;mix-blend-mode:normal;color-interpolation:sRGB;color-interpolation-filters:linearRGB;solid-color:#000000;solid-opacity:1;fill:#776e65;fill-opacity:0.99215686;fill-rule:evenodd;stroke:none;stroke-width:1.29999995;stroke-linecap:butt;stroke-linejoin:bevel;stroke-miterlimit:4;stroke-dasharray:none;stroke-dashoffset:0;stroke-opacity:1;color-rendering:auto;image-rendering:auto;shape-rendering:auto;text-rendering:auto;enable-background:accumulate"
       d="m 171.78414,2138.6636 c -6.91365,-1.2187 -13.01112,-4.1669 -21.4711,-10.3815 l -6.02661,-4.4272 -0.0557,-46.7857 -0.0557,-46.7857 17.14286,0 17.14285,0 -0.0101,6.7857 c -0.006,3.7322 -0.41997,11.125 -0.92086,16.4286 l -0.91072,9.6429 -6.26346,0 -6.26346,0 0.39861,18.7869 0.39861,18.7869 5.63045,1.9472 c 5.17599,1.79 6.1561,1.6862 12.14285,-1.2869 11.47608,-5.6992 16.83009,-19.8304 18.50295,-48.8363 1.98621,-34.4392 -2.63176,-58.2721 -13.3722,-69.0126 -5.2271,-5.2271 -6.95033,-6.0995 -12.04768,-6.0995 -7.8922,0 -13.71511,2.6422 -21.96798,9.9684 l -6.8259,6.0594 0.39733,-20.2728 0.39732,-20.2729 8.41848,-5.2236 c 7.28952,-4.5231 9.82075,-5.2944 18.87488,-5.7516 17.09574,-0.8633 27.01535,5.7152 36.27382,24.0561 8.93538,17.7009 13.15274,41.4766 13.17539,74.2773 0.046,66.6136 -20.06044,104.1511 -52.70486,98.3969 z"
       id="path4319"
       inkscape:connector-curvature="0"
       inkscape:export-filename="/home/shinsuke/repos/endojo/apps/core/static/img/unknowing.png"
       inkscape:export-xdpi="90"
       inkscape:export-ydpi="90" />
    <path
       style="color:#000000;clip-rule:nonzero;display:inline;overflow:visible;visibility:visible;opacity:0.98999999;isolation:auto;mix-blend-mode:normal;color-interpolation:sRGB;color-interpolation-filters:linearRGB;solid-color:#000000;solid-opacity:1;fill:#776e65;fill-opacity:0.99215686;fill-rule:evenodd;stroke:none;stroke-width:1.29999995;stroke-linecap:butt;stroke-linejoin:bevel;stroke-miterlimit:4;stroke-dasharray:none;stroke-dashoffset:0;stroke-opacity:1;color-rendering:auto;image-rendering:auto;shape-rendering:auto;text-rendering:auto;enable-background:accumulate"
       d="m 242.74643,2040.2835 0,-95.7143 10,0 10,0 0,62.381 c 0,34.3095 0.43802,61.9429 0.97338,61.4076 0.53537,-0.5354 7.47314,-28.4461 15.41729,-62.0239 l 14.44389,-61.0504 12.43986,-0.4127 12.43986,-0.4128 0,95.7699 0,95.7699 -10,0 -10,0 0,-63.1429 c 0,-37.315 -0.52412,-62.5877 -1.28135,-61.7857 -0.70474,0.7465 -7.89651,29.1607 -15.98171,63.1429 l -14.70037,61.7857 -11.87542,0 -11.87543,0 0,-95.7143 z"
       id="path4321"
       inkscape:connector-curvature="0"
       inkscape:export-filename="/home/shinsuke/repos/endojo/apps/core/static/img/unknowing.png"
       inkscape:export-xdpi="90"
       inkscape:export-ydpi="90" />
    <rect
       style="color:#000000;clip-rule:nonzero;display:inline;overflow:visible;visibility:visible;opacity:0.98999999;isolation:auto;mix-blend-mode:normal;color-interpolation:sRGB;color-interpolation-filters:linearRGB;solid-color:#000000;solid-opacity:1;fill:#776e65;fill-opacity:1;fill-rule:evenodd;stroke:none;stroke-width:1.29999995;stroke-linecap:butt;stroke-linejoin:bevel;stroke-miterlimit:4;stroke-dasharray:none;stroke-dashoffset:0;stroke-opacity:1;color-rendering:auto;image-rendering:auto;shape-rendering:auto;text-rendering:auto;enable-background:accumulate"
       id="rect4323"
       width="670"
       height="220"
       x="135.71428"
       y="1922.3622"
       inkscape:export-filename="/home/shinsuke/repos/endojo/apps/core/static/img/unknowing.png"
       inkscape:export-xdpi="90"
       inkscape:export-ydpi="90" />
    <text
       xml:space="preserve"
       style="font-style:normal;font-weight:normal;font-size:34.32344437px;line-height:125%;font-family:sans-serif;letter-spacing:0px;word-spacing:0px;fill:#faf8f9;fill-opacity:1;stroke:none;stroke-width:1px;stroke-linecap:butt;stroke-linejoin:miter;stroke-opacity:1"
       x="230.04048"
       y="1278.1757"
       id="text4325"
       sodipodi:linespacing="125%"
       transform="scale(0.59996737,1.6667573)"
       inkscape:export-filename="/home/shinsuke/repos/endojo/apps/core/static/img/unknowing.png"
       inkscape:export-xdpi="90"
       inkscape:export-ydpi="90"><tspan
         sodipodi:role="line"
         id="tspan4327"
         x="230.04048"
         y="1278.1757"
         style="font-style:normal;font-variant:normal;font-weight:bold;font-stretch:normal;font-size:154.45549011px;line-height:125%;font-family:sans-serif;-inkscape-font-specification:'sans-serif, Bold';text-align:start;writing-mode:lr-tb;text-anchor:start;fill:#ff8080;fill-opacity:1">UNKNOWING</tspan></text>
    <flowRoot
       xml:space="preserve"
       id="flowRoot4329"
       style="fill:black;stroke:none;stroke-opacity:1;stroke-width:1px;stroke-linejoin:miter;stroke-linecap:butt;fill-opacity:1;font-family:sans-serif;font-style:normal;font-weight:normal;font-size:40px;line-height:125%;letter-spacing:0px;word-spacing:0px"><flowRegion
         id="flowRegion4331"><rect
           id="rect4333"
           width="510"
           height="147.14285"
           x="252.85715"
           y="1515.2194" /></flowRegion><flowPara
         id="flowPara4335" /></flowRoot>    <flowRoot
       xml:space="preserve"
       id="flowRoot4337"
       style="fill:black;stroke:none;stroke-opacity:1;stroke-width:1px;stroke-linejoin:miter;stroke-linecap:butt;fill-opacity:1;font-family:sans-serif;font-style:normal;font-weight:normal;font-size:40px;line-height:125%;letter-spacing:0px;word-spacing:0px"><flowRegion
         id="flowRegion4339"><rect
           id="rect4341"
           width="75.714287"
           height="90"
           x="138.57143"
           y="1515.2194" /></flowRegion><flowPara
         id="flowPara4343" /></flowRoot>    <flowRoot
       xml:space="preserve"
       id="flowRoot4345"
       style="fill:black;stroke:none;stroke-opacity:1;stroke-width:1px;stroke-linejoin:miter;stroke-linecap:butt;fill-opacity:1;font-family:sans-serif;font-style:normal;font-weight:normal;font-size:40px;line-height:125%;letter-spacing:0px;word-spacing:0px"><flowRegion
         id="flowRegion4347"><rect
           id="rect4349"
           width="92.85714"
           height="78.571426"
           x="121.42857"
           y="1542.3622" /></flowRegion><flowPara
         id="flowPara4351" /></flowRoot>    <flowRoot
       xml:space="preserve"
       id="flowRoot4353"
       style="fill:black;stroke:none;stroke-opacity:1;stroke-width:1px;stroke-linejoin:miter;stroke-linecap:butt;fill-opacity:1;font-family:sans-serif;font-style:normal;font-weight:normal;font-size:40px;line-height:125%;letter-spacing:0px;word-spacing:0px"><flowRegion
         id="flowRegion4355"><rect
           id="rect4357"
           width="74.285713"
           height="55.714287"
           x="245.71428"
           y="1569.505" /></flowRegion><flowPara
         id="flowPara4359" /></flowRoot>    <rect
       style="color:#000000;clip-rule:nonzero;display:inline;overflow:visible;visibility:visible;opacity:0.98999999;isolation:auto;mix-blend-mode:normal;color-interpolation:sRGB;color-interpolation-filters:linearRGB;solid-color:#000000;solid-opacity:1;fill:#776e65;fill-opacity:1;fill-rule:evenodd;stroke:none;stroke-width:1.29999995;stroke-linecap:butt;stroke-linejoin:bevel;stroke-miterlimit:4;stroke-dasharray:none;stroke-dashoffset:0;stroke-opacity:1;color-rendering:auto;image-rendering:auto;shape-rendering:auto;text-rendering:auto;enable-background:accumulate"
       id="rect4393"
       width="648.57141"
       height="220"
       x="128.57143"
       y="1469.505"
       inkscape:export-filename="/home/shinsuke/repos/endojo/apps/core/static/img/knowing.png"
       inkscape:export-xdpi="90"
       inkscape:export-ydpi="90" />
    <text
       xml:space="preserve"
       style="font-style:normal;font-weight:normal;font-size:37.93227005px;line-height:125%;font-family:sans-serif;letter-spacing:0px;word-spacing:0px;fill:#aaeeff;fill-opacity:1;stroke:none;stroke-width:1px;stroke-linecap:butt;stroke-linejoin:miter;stroke-opacity:1;"
       x="189.59567"
       y="1104.499"
       id="text4325-6"
       sodipodi:linespacing="125%"
       transform="scale(0.66304898,1.5081842)"
       inkscape:export-filename="/home/shinsuke/repos/endojo/apps/core/static/img/knowing.png"
       inkscape:export-xdpi="90"
       inkscape:export-ydpi="90"><tspan
         sodipodi:role="line"
         id="tspan4327-0"
         x="189.59567"
         y="1104.499"
         style="font-style:normal;font-variant:normal;font-weight:bold;font-stretch:normal;font-size:170.69520569px;line-height:125%;font-family:sans-serif;-inkscape-font-specification:'sans-serif, Bold';text-align:start;writing-mode:lr-tb;text-anchor:start;fill:#aaeeff;fill-opacity:1;">KNOWING</tspan></text>
    <path
       style="color:#000000;clip-rule:nonzero;display:inline;overflow:visible;visibility:visible;opacity:0.98999999;isolation:auto;mix-blend-mode:normal;color-interpolation:sRGB;color-interpolation-filters:linearRGB;solid-color:#000000;solid-opacity:1;fill:#776e65;fill-opacity:1;fill-rule:evenodd;stroke:none;stroke-width:1.29999995;stroke-linecap:butt;stroke-linejoin:bevel;stroke-miterlimit:4;stroke-dasharray:none;stroke-dashoffset:0;stroke-opacity:1;color-rendering:auto;image-rendering:auto;shape-rendering:auto;text-rendering:auto;enable-background:accumulate"
       d="m 705.319,1309.6208 -147.35232,15.3969 -147.46169,-15.3969 -147.4619,-15.3968 42.48089,-0.1211 42.48075,-0.121 0,-101.4234 0,-101.4234 210.96047,0 210.96054,0 0,101.4232 0,101.4231 41.37263,0.1213 41.37279,0.1213 -147.35216,15.3968 z m 15.98025,-89.0931 c -17.53831,-6.6787 -95.70266,-10.5199 -188.26064,-9.2517 -81.70826,1.1197 -127.44941,5.8933 -127.74799,13.3323 -0.12749,3.1842 3.93342,5.0333 15.61987,7.1119 25.58138,4.5501 77.85523,7.1159 144.97143,7.1159 116.4896,0 182.93894,-7.8279 155.41733,-18.3084 z m 1.00369,-116.9134 c -1.78708,-0.8441 -7.49175,-2.5958 -12.67723,-3.8927 l -9.42811,-2.3581 -75.8037,0 -75.80385,0 0,5.5751 0,5.5752 27.09069,-0.1253 27.09054,-0.1254 0.70269,-2.1132 0.7027,-2.1132 28.81112,0 28.81095,0 3.63049,1.6683 c 3.16131,1.4528 3.22055,1.8983 0.45867,3.4479 -6.80972,3.8208 -35.56193,5.905 -87.32521,6.3301 -96.93778,0.7961 -140.187,-5.6881 -97.40839,-14.604 l 12.59863,-2.6257 -33.65687,0 -33.65681,0 -7.86602,2.0915 c -9.44925,2.5125 -13.52937,4.9251 -13.39073,7.9183 0.24225,5.2316 17.09723,8.9174 53.62937,11.7278 45.05072,3.4657 132.27554,4.0973 190.99507,1.3831 62.36567,-2.8827 89.77657,-9.5976 72.496,-17.7597 z m -60.16302,185.4806 -59.36864,-0.013 59.36864,-5.1839 59.36865,-5.1839 0,-4.3681 c 0,-2.4025 -0.85778,-4.3682 -1.90618,-4.3682 -1.04839,0 -37.50765,3.103 -81.02048,6.8956 -43.51299,3.7927 -79.96241,6.8957 -80.99885,6.8957 -1.03629,0 -33.79907,-2.8028 -72.80587,-6.2283 -39.0069,-3.4256 -71.73158,-6.2285 -72.72171,-6.2285 -0.98997,0 -1.77143,1.8518 -1.73641,4.1152 l 0.0629,4.1153 54.69374,4.7732 54.69381,4.7731 -54.75739,0.012 -54.7575,0.012 0,3.5591 0,3.5591 155.62659,0 155.62666,0 0,-3.5591 0,-3.5591 -59.36865,-0.013 z m -41.50044,-28.1213 -100.8691,-0.1158 62.25059,-2.8307 c 34.23788,-1.557 79.62898,-3.6312 100.8691,-4.6094 l 38.6185,-1.7784 0,-3.9548 0,-3.9548 -155.62665,0 -155.62643,0 0,3.3321 0,3.332 101.36531,0.1158 101.36537,0.1158 -71.96921,3.2738 c -39.58313,1.8005 -85.19759,3.876 -101.36547,4.612 l -29.396,1.3381 0,3.952 0,3.952 155.62643,0 155.62665,0 0,-3.3319 0,-3.332 -100.86909,-0.1158 z m 94.5287,-67.2348 c -3.48716,-0.1291 -54.58455,-1.1961 -113.54971,-2.371 -58.96518,-1.1748 -105.13449,-2.1852 -102.59824,-2.2453 2.53609,-0.06 49.22412,-1.0138 103.75105,-2.1194 54.52693,-1.1057 103.54931,-2.1303 108.93863,-2.277 l 9.79866,-0.2667 0,-4.0862 0,-4.0862 -150.43907,-3.0253 c -82.7414,-1.6639 -152.77338,-3.1274 -155.6266,-3.2521 -5.04474,-0.2205 -5.18741,-0.129 -5.18741,3.3275 l 0,3.5541 25.93772,0.5341 c 112.79773,2.3226 186.59259,3.9394 182.71713,4.0033 -2.5361,0.042 -50.26171,1.0143 -106.05668,2.1611 l -101.44552,2.0852 -0.67203,3.4336 c -0.63992,3.2683 -0.41784,3.4439 4.61109,3.6485 2.90583,0.1182 47.82124,1.041 99.81209,2.0508 51.99083,1.01 96.45716,1.9778 98.81427,2.1509 2.3571,0.1731 -38.62463,1.1839 -91.07043,2.246 -52.4458,1.0622 -99.24658,2.0318 -104.00179,2.1548 l -8.64585,0.2236 0,3.5358 0,3.5359 6.34022,-0.2389 c 3.48717,-0.1313 72.22221,-1.5633 152.74465,-3.1819 80.52242,-1.6188 147.70125,-3.0223 149.28626,-3.1192 2.02303,-0.1235 2.88195,-1.363 2.88195,-4.1586 l 0,-3.9825 -6.34039,-0.2349 z m -149.28626,-34.9816 -155.62643,0 0,3.5591 0,3.559 155.62643,0 155.62665,0 0,-3.559 0,-3.5591 -155.62665,0 z m 53.60474,-13.377 -102.02191,-0.03 70.32029,-3.2522 c 38.67612,-1.7888 84.58592,-3.8994 102.0219,-4.6905 l 31.70163,-1.4384 0,-3.9541 0,-3.9542 -155.62665,0 -155.62643,0 0,3.332 0,3.3319 100.84708,0.1159 100.84715,0.1158 -66.8399,3.0499 c -36.76187,1.6773 -82.14311,3.7497 -100.84709,4.6049 l -34.00724,1.5551 0,3.959 0,3.959 155.62643,0 155.62665,0 0,-3.3367 0,-3.3366 -102.02191,-0.03 0,0 z"
       id="path4240-2"
       inkscape:connector-curvature="0"
       inkscape:export-filename="/home/shinsuke/repos/endojo/apps/core/static/img/undo.png"
       inkscape:export-xdpi="90"
       inkscape:export-ydpi="90" />
    <rect
       style="color:#000000;clip-rule:nonzero;display:inline;overflow:visible;visibility:visible;opacity:0.98999999;isolation:auto;mix-blend-mode:normal;color-interpolation:sRGB;color-interpolation-filters:linearRGB;solid-color:#000000;solid-opacity:1;fill:#776e65;fill-opacity:1;fill-rule:evenodd;stroke:none;stroke-width:1.29999995;stroke-linecap:butt;stroke-linejoin:bevel;stroke-miterlimit:4;stroke-dasharray:none;stroke-dashoffset:0;stroke-opacity:1;color-rendering:auto;image-rendering:auto;shape-rendering:auto;text-rendering:auto;enable-background:accumulate"
       id="rect4393-4"
       width="395.71426"
       height="204.28572"
       x="357.7608"
       y="1092.9846"
       inkscape:export-filename="/home/shinsuke/repos/endojo/apps/core/static/img/undo.png"
       inkscape:export-xdpi="90"
       inkscape:export-ydpi="90" />
    <text
       xml:space="preserve"
       style="font-style:normal;font-weight:normal;font-size:33.04376221px;line-height:125%;font-family:sans-serif;letter-spacing:0px;word-spacing:0px;fill:#ffdd55;fill-opacity:1;stroke:none;stroke-width:1px;stroke-linecap:butt;stroke-linejoin:miter;stroke-opacity:1"
       x="556.05621"
       y="886.94672"
       id="text4325-6-7"
       sodipodi:linespacing="125%"
       transform="scale(0.69485204,1.4391553)"
       inkscape:export-filename="/home/shinsuke/repos/endojo/apps/core/static/img/undo.png"
       inkscape:export-xdpi="90"
       inkscape:export-ydpi="90"><tspan
         sodipodi:role="line"
         id="tspan4327-0-7"
         x="556.05621"
         y="886.94672"
         style="font-style:normal;font-variant:normal;font-weight:bold;font-stretch:normal;font-size:148.69691467px;line-height:125%;font-family:sans-serif;-inkscape-font-specification:'sans-serif, Bold';text-align:start;writing-mode:lr-tb;text-anchor:start;fill:#ffdd55;fill-opacity:1">UNDO</tspan></text>
  </g>
</svg>
